<svg xmlns="http://www.w3.org/2000/svg" viewBox="0 0 448 512" aria-hidden="true" focusable="false"><path fill="currentColor" d="M0 96C0 60.7 28.7 32 64 32h96c35.3 0 64 28.7 64 64v96c0 35.3-28.7 64-64 64H64c-35.3 0-64-28.7-64-64V96zm256 0c0-35.3 28.7-64 64-64h96c35.3 0 64 28.7 64 64v96c0 35.3-28.7 64-64 64H320c-35.3 0-64-28.7-64-64V96zM64 288h96c35.3 0 64 28.7 64 64v96c0 35.3-28.7 64-64 64H64c-35.3 0-64-28.7-64-64V352c0-35.3 28.7-64 64-64zm256 0c0-35.3 28.7-64 64-64h96c35.3 0 64 28.7 64 64v96c0 35.3-28.7 64-64 64H320c-35.3 0-64-28.7-64-64V352z"/></svg>
