<svg xmlns="http://www.w3.org/2000/svg" viewBox="0 0 448 512"><!--!Font Awesome Free 6.7.2 by @fontawesome - https://fontawesome.com License - https://fontawesome.com/license/free Copyright 2025 Fonticons, Inc.--><path fill="currentColor" d="M331.5 235.7c13.8 0 24.9-11.2 24.9-24.9 0-13.8-11.2-24.9-24.9-24.9s-24.9 11.2-24.9 24.9c0 13.7 11.1 24.9 24.9 24.9zm-66.7 0c13.8 0 24.9-11.2 24.9-24.9 0-13.8-11.2-24.9-24.9-24.9s-24.9 11.2-24.9 24.9c0 13.7 11.1 24.9 24.9 24.9zm-66.7 0c13.8 0 24.9-11.2 24.9-24.9 0-13.8-11.2-24.9-24.9-24.9s-24.9 11.2-24.9 24.9c0 13.7 11.1 24.9 24.9 24.9zM448 256c0 141.4-114.6 256-256 256S-64 397.4-64 256 50.6 0 192 0s256 114.6 256 256zm-80 0c0-97.2-78.8-176-176-176S16 158.8 16 256s78.8 176 176 176 176-78.8 176-176z"/></svg>
